<svg xmlns="http://www.w3.org/2000/svg" xmlns:xlink="http://www.w3.org/1999/xlink" version="1.1" x="0px" y="0px" viewBox="0 0 64 80" enable-background="new 0 0 64 64" xml:space="preserve" ><g><path d="M14.0004063,22h6c0.5522461,0,1-0.4477539,1-1s-0.4477539-1-1-1h-6c-0.5522461,0-1,0.4477539-1,1   S13.4481602,22,14.0004063,22z"/><path d="M14.0004063,26h6c0.5522461,0,1-0.4477539,1-1s-0.4477539-1-1-1h-6c-0.5522461,0-1,0.4477539-1,1   S13.4481602,26,14.0004063,26z"/><path d="M19.0004063,29c0-0.5522461-0.4477539-1-1-1h-4c-0.5522461,0-1,0.4477539-1,1s0.4477539,1,1,1h4   C18.5526524,30,19.0004063,29.5522461,19.0004063,29z"/><path d="M61.0004044,42c0-2.3564453-1.1704102-4.5200195-3.1000977-5.8149414   C57.966713,35.7998047,58.0004044,35.4033203,58.0004044,35c0-3.1988525-2.1591187-5.8972168-5.0949097-6.7296753   c-0.5514526-5.9136353-3.9312744-11.1030884-9.1697388-13.992981c-0.0786133-0.0522461-0.1611328-0.1010742-0.2670898-0.1606445   c-0.0043945-0.0023193-0.0089111-0.0039673-0.0133057-0.0062866c-0.0027466-0.0014038-0.0049438-0.00354-0.0076904-0.0049438   c-0.0020752-0.0010376-0.0042725-0.0006714-0.0063477-0.001709c-1.7289429-0.913269-3.5587769-1.5161133-5.440918-1.8320313V7   c0-0.5522461-0.4477539-1-1-1h-4c-0.5522461,0-1,0.4477539-1,1v5.2701416   c-3.3390484,0.56604-6.4694195,2.0690308-8.9996319,4.3282471c-0.5943604-0.833252-1.2937012-1.5742798-2.0845337-2.2009888   C20.9693394,14.2753296,21.0004063,14.1416016,21.0004063,14c0-1.9272461,0.7338867-5.597168,3.4858398-7.1259766   c0.3979492-0.2211914,0.5966797-0.6835938,0.4824219-1.125C24.8539219,5.3081055,24.4559727,5,24.0004063,5   c-2.2459717,0-4.1237793,0.4921265-5.5790405,1.3990479c0.3486328-0.9689941,0.9698486-1.916687,2.0648804-2.5250244   c0.3979492-0.2211914,0.5966797-0.6835938,0.4824219-1.125C20.8539219,2.3081055,20.4559727,2,20.0004063,2   c-4.4107056,0-7.4801025,2.2886353-8.5632935,4.9152222C10.0931797,5.7957153,8.062479,5,5.0004063,5   C4.5448399,5,4.1468906,5.3081055,4.0321445,5.7490234c-0.1142581,0.4414063,0.0844727,0.9038086,0.4824219,1.125   c2.645752,1.4697876,3.4181519,4.9033203,3.4744263,6.8799438c-0.9769897,0.6260986-1.8626099,1.402771-2.611145,2.3270874   c-2.0302737,2.5087891-2.8125002,5.7441406-2.1455081,8.8779297l7.3212891,34.2954102   C10.9022617,60.8452148,12.3519688,62,14.0004063,62c1.6479492,0,3.0976563-1.1547852,3.4477539-2.7509766L19.2091465,51   h10.7912598c2.057127,0,6.0949078,0.6994629,9.2902813,1.8334351c0.017395,0.0560303,0.0276489,0.1124878,0.0471191,0.1685181   C39.1136856,53.6459961,39.0004044,54.315918,39.0004044,55c0,3.3085938,2.6914063,6,6,6   c0.203125,0,0.4130859-0.0117188,0.6279297-0.0341797C46.6205215,61.6352539,47.8016739,62,49.0004044,62   c3.3085938,0,6-2.6914063,6-6c0-0.5698242-0.0791016-1.1274414-0.2358398-1.6674805   C56.7357559,53.3173828,58.0004044,51.2871094,58.0004044,49c0-0.3935547-0.0390625-0.7856445-0.1162109-1.1728516   C59.8246231,46.5395508,61.0004044,44.3735352,61.0004044,42z M50.8739395,28.0009766   c-0.1889648,0.003418-0.3734131,0.0343018-0.5600586,0.0527344c-0.1511841,0.0148926-0.3039551,0.0181274-0.453125,0.0427246   c-0.2124023,0.0349731-0.4176025,0.0951538-0.6248779,0.149292c-0.1383057,0.0361328-0.2799072,0.0596924-0.4154663,0.104187   c-0.2240601,0.0735474-0.4375,0.1730957-0.6525879,0.2689209c-0.1099243,0.0490112-0.2252197,0.0849609-0.3325195,0.1396484   c-0.3170776,0.1616821-0.6223755,0.3469849-0.9120483,0.5569458C46.3099747,29.105957,45.6654434,29,45.0004044,29   c-3.3085938,0-6,2.6914063-6,6c0,0.1499023,0.0055542,0.2984619,0.0163574,0.444519   c-0.0651855,0.0223999-0.1264648,0.0462646-0.1925049,0.0682983c-0.1557617,0.0519409-0.3163452,0.1014404-0.4766235,0.1511841   c-0.2138672,0.0664063-0.4294434,0.1317749-0.6501465,0.1941528c-0.1674805,0.0473022-0.3372192,0.0927734-0.5079956,0.1376343   c-0.2233276,0.0586548-0.4486694,0.1152954-0.6765137,0.1695557c-0.1739502,0.0414429-0.3485718,0.081665-0.5244141,0.1204224   c-0.2320557,0.0510254-0.4654541,0.098999-0.6997681,0.1451416C35.1131973,36.4655151,34.9377213,36.5,34.7614517,36.5317383   c-0.2398071,0.0431519-0.4794922,0.0817261-0.7192993,0.1193237c-0.1712036,0.0268555-0.3422852,0.0547485-0.5128784,0.0786743   c-0.2483521,0.0348511-0.4942627,0.0634766-0.7400513,0.0917969c-0.159668,0.0184326-0.3204346,0.0393066-0.4784546,0.0548706   c-0.2699585,0.0266113-0.5339336,0.045105-0.7975445,0.0631714c-0.1276245,0.008728-0.2584839,0.0214844-0.3842163,0.0281372   C30.7426548,36.9881592,30.3644199,37,30.0004063,37h-7.7949219l2.5644531-12.0488281   c0.0691528-0.3369751,0.118042-0.6733398,0.156189-1.0080566c2.5078125-0.2668457,5.2955322-1.5491943,6.9102173-3.1135254   c0.5913067,1.1416016,0.8393536,1.9819336,0.2153301,3.8540039c-0.135252,0.4052734,0.0024414,0.8515625,0.3417969,1.1113281   C32.5721817,25.9311523,32.7860489,26,33.0004044,26c0.1928711,0,0.3862305-0.0556641,0.5546875-0.1679688   c1.340332-0.8935547,5.0361328-3.5776367,5.5830078-6.3017578C40.7987442,20.3081055,43.0004044,21.7617188,43.0004044,24   c0,0.4902344,0.3554688,0.9086914,0.8398438,0.9873047c0.4799805,0.0708008,0.9541016-0.206543,1.1088867-0.6708984   c0.5388794-1.616394,0.8771973-4.1541138,0.5939331-6.3320923C48.484169,20.538208,50.3948135,24.0682373,50.8739395,28.0009766z    M39.0853653,44.9951172c-0.6669922-0.4810181-1.3608398-0.9235229-2.0927734-1.2958984   c0.8075562-0.4862061,1.5817871-1.0446167,2.3250732-1.635437C39.1113663,42.6752319,39.0004044,43.3267822,39.0004044,44   C39.0004044,44.3371582,39.0315323,44.6690063,39.0853653,44.9951172z M27.9706211,15.7573242   c-0.008606-0.0344238-0.0318604-0.0595703-0.0437012-0.0921631c1.625061-0.8018188,3.3798218-1.3381348,5.1955547-1.5523682   c0.7277222-0.0896606,1.4920654-0.1075439,2.25354-0.0896606c0.5083008,0.0119629,1.0184326,0.0299683,1.508667,0.0901489   c1.9624023,0.2285156,3.8623047,0.8237305,5.6240234,1.7573242c0.0201416,0.0115356,0.0404663,0.0248413,0.0608521,0.0368042   c0.7832031,0.4169922,1.168396,2.3460083,1.0675659,4.4573364c-1.1328125-1.378418-2.9428711-2.5209961-5.3203125-3.3134766   c-0.3837891-0.1274414-0.8066406-0.012207-1.0717773,0.293457s-0.3198242,0.7407227-0.1391602,1.1025391   c0.425293,0.8496094-0.7021484,2.5444336-2.6972656,4.2441406c-0.0268555-1.3652344-0.5473633-2.3286133-1.0874023-3.328125   c-0.1376953-0.2553711-0.2822266-0.5219727-0.4262695-0.8105469c-0.3388672-0.6777344-1.4501934-0.6777344-1.7890606,0   c-0.5170898,1.034668-2.3041992,2.2587891-4.2910156,2.9345703C28.6639805,18.6787109,28.0077305,15.9057617,27.9706211,15.7573242   z M34.0004044,8h2v4.027832C35.669838,12.0092773,35.3358536,12,35.0004044,12s-0.6694336,0.0092773-1,0.027832V8z    M26.0962315,16.7148438c0.0686646,0.7962646,0.0094604,2.4662476-1.2869263,4.1170654   c-0.0337524-0.1798706-0.0686035-0.3588867-0.1117554-0.5369873c-0.0366211-0.1513062-0.081604-0.2997437-0.124939-0.4494629   c-0.0721436-0.2493286-0.1511841-0.4958496-0.2416992-0.7398682c-0.0565796-0.1526489-0.116333-0.3031006-0.1799927-0.4532471   c-0.0421143-0.0993042-0.0740967-0.2022095-0.1192627-0.300293C24.6750889,17.7478027,25.3672886,17.2023315,26.0962315,16.7148438   z M21.0131016,7.3823242c-1.2667847,1.7583618-1.8572998,3.9511108-1.9854126,5.8311768   c-0.6380005-0.3215332-1.2996826-0.5986938-1.9952393-0.793457C17.2009678,10.3779297,18.1263828,8.2349854,21.0131016,7.3823242z    M17.1512852,4.4379883c-0.7363892,1.2301025-1.1339111,2.7619629-1.1462402,4.482605   c-0.5040894,0.9100952-0.8230591,1.9655151-0.9442139,3.1500854C14.7092686,12.0374756,14.3583775,12,14.0004063,12   c-0.0170898,0-0.0336304,0.0027466-0.0507202,0.0028076c-0.0934448-0.9349365-0.3463135-2.0678101-0.9335327-3.1497803   C13.098856,7.0841064,14.6559238,5.2537842,17.1512852,4.4379883z M7.9784336,7.3691406   c2.857605,0.817688,3.7990723,2.8635864,3.9846191,4.8303833c-0.7002563,0.1279907-1.3797607,0.3205566-2.0346069,0.5757446   C9.7433872,10.9935913,9.1549473,8.9960938,7.9784336,7.3691406z M15.4935703,58.8256836   C15.3441563,59.5063477,14.7162266,60,14.0004063,60c-0.7163086,0-1.3442383-0.4936523-1.4921875-1.1689453L5.1883945,24.5419922   c-0.5405273-2.5400391,0.0952148-5.1650391,1.7441406-7.2021484C8.6507969,15.2172852,11.2269688,14,14.0004063,14   c3.328125,0,6.3681641,1.7744141,7.934082,4.6323242c0.6972656,1.2666016,1.065918,2.6870117,1.065918,4.1079102   c0,0.5874023-0.0639648,1.1962891-0.1879883,1.8017578l-5.3898926,25.2478027l-0.0002441,0.0012207l0,0L15.4935703,58.8256836z    M19.6366367,49l2.1401367-10h8.2236328c0.3868408,0,0.7885742-0.0127563,1.1989136-0.0343018   c0.1383667-0.0072632,0.2814941-0.0206909,0.4219971-0.0302734c0.2771606-0.0189819,0.5542583-0.0386353,0.8380718-0.0664063   c0.168335-0.0164795,0.338501-0.0377808,0.508606-0.057312c0.2616577-0.0299072,0.522644-0.0608521,0.7870483-0.0976563   c0.1831055-0.0254517,0.3655396-0.0541382,0.5493164-0.0827637c0.2548218-0.0397339,0.5083618-0.0811768,0.7633057-0.126709   c0.1876831-0.0335693,0.3734131-0.0686035,0.5604248-0.1051636c0.2528076-0.0493774,0.5029297-0.1015625,0.7533569-0.156311   c0.1838989-0.0402222,0.3660278-0.0805054,0.5479736-0.1234131c0.2520142-0.0594482,0.4990234-0.1226196,0.7460327-0.1870728   c0.1734619-0.0452881,0.3467407-0.0894775,0.5171509-0.137146c0.2543945-0.071167,0.5003662-0.1467285,0.74646-0.2229004   c0.1529541-0.0473022,0.3087158-0.0925903,0.4578857-0.1417847c0.0335083-0.0110474,0.0696411-0.020752,0.1029663-0.0318604   c0.0564575,0.1305542,0.1258545,0.2547607,0.1916504,0.3807983c0.0319824,0.0613403,0.059021,0.1248779,0.0931396,0.1850586   c0.1196289,0.2108154,0.2503052,0.4155273,0.395874,0.6109009c-1.6210938,1.7421875-3.7817383,3.3237305-5.9213867,4.3168945   c-0.3696289,0.171875-0.5986328,0.5507813-0.5776367,0.9575195c0.0205078,0.4072266,0.2861328,0.7612305,0.6708984,0.8945313   c2.0195313,0.699707,3.8618164,1.8686523,5.3686523,3.4003906c-0.0177002,0.0324707-0.0304565,0.0670776-0.0475464,0.0998535   c-0.0306396,0.0587769-0.0565796,0.1191406-0.085144,0.178833c-0.0956421,0.199707-0.1796265,0.4039307-0.2520142,0.612793   c-0.0223999,0.0645142-0.046875,0.1278687-0.0669556,0.1931763c-0.0799561,0.2597046-0.1444092,0.5244141-0.1882324,0.7947998   c-0.0081177,0.0499268-0.0105591,0.1010742-0.0174561,0.1513062c-0.0202026,0.1482544-0.0424194,0.2960815-0.0516357,0.4467773   C35.772377,49.597168,32.0668106,49,30.0004063,49H19.6366367z M56.2674942,46.4584961   c-0.4458008,0.2260742-0.6557617,0.746582-0.4921875,1.21875C55.9247208,48.1088867,56.0004044,48.5537109,56.0004044,49   c0,1.7675781-1.1313477,3.3046875-2.8154297,3.824707c-0.2792969,0.0864258-0.5073242,0.2910156-0.6230469,0.5600586   s-0.1079102,0.574707,0.0214844,0.8374023c0.2768555,0.5615234,0.4169922,1.159668,0.4169922,1.777832c0,2.2055664-1.7944336,4-4,4   c-0.9116211,0-1.7729492-0.2993164-2.4907227-0.8652344c-0.1777344-0.1401367-0.3959961-0.2148438-0.6191406-0.2148438   c-0.0561523,0-0.112793,0.0048828-0.1694336,0.0146484C45.4676895,58.9780273,45.2250137,59,45.0004044,59   c-2.2055664,0-4-1.7944336-4-4c0-0.5537109,0.1108398-1.0947266,0.3300781-1.6074219   c0.1079102-0.2529297,0.1069336-0.5390625-0.0029297-0.7915039c-0.1074219-0.246582-0.1801758-0.4814453-0.2231445-0.71875   c-0.0046997-0.0267944-0.0134277-0.0519409-0.0203247-0.0778809C41.0322037,51.5337524,41.0004044,51.2630005,41.0004044,51   c0-0.8676758,0.2700195-1.6875,0.8061523-2.40625c0.0947266-0.1386719,0.2041016-0.2700195,0.3208008-0.3867188   c0.3876953-0.387207,0.3911133-1.0141602,0.0078125-1.40625C41.4032364,46.0522461,41.0004044,45.0576172,41.0004044,44   c0-1.5454102,0.8647461-2.925293,2.2563477-3.6000977c0.3466797-0.168457,0.565918-0.5209961,0.5634766-0.90625   s-0.2260742-0.7348633-0.574707-0.8989258c-0.3823242-0.1791992-0.7285156-0.4223633-1.0385742-0.7319336   c-0.5561523-0.5400391-0.9365234-1.2202148-1.1064453-1.9951172C41.0331192,35.5976563,41.0004044,35.3139648,41.0004044,35   c0-2.2055664,1.7944336-4,4-4c0.5874023,0,1.1479492,0.1230469,1.6655273,0.3657227   c0.359375,0.1674805,0.7841797,0.1079102,1.0830078-0.1533203c0.2126465-0.1862793,0.4395142-0.3479004,0.6746826-0.4923096   c0.0246582-0.0153198,0.0488892-0.0314941,0.0737305-0.0463257c0.7360229-0.43396,1.5708008-0.6622925,2.4584351-0.6698608   c0.0279541,0,0.0557251-0.0004272,0.0838013,0.000061C53.7779922,30.0256348,56.0004044,32.2565918,56.0004044,35   c0,0.4824219-0.0664063,0.9472656-0.1972656,1.3803711c-0.1391602,0.4604492,0.0688477,0.9545898,0.4951172,1.1762695   C57.9647598,38.4248047,59.0004044,40.1274414,59.0004044,42C59.0004044,43.894043,57.9530411,45.6025391,56.2674942,46.4584961z"/></g><text x="0" y="84" fill="#000000" font-size="5px" font-weight="bold" font-family="'Helvetica Neue', Helvetica, Arial-Unicode, Arial, Sans-serif">from the Noun Project</text></svg>